<?xml version="1.0" encoding="UTF-8" standalone="no"?>
<!DOCTYPE svg PUBLIC "-//W3C//DTD SVG 1.1//EN"
 "http://www.w3.org/Graphics/SVG/1.1/DTD/svg11.dtd">
<!-- Generated by graphviz version 2.40.1 (20161225.0304)
 -->
<!-- Title: dependencies Pages: 1 -->
<svg width="1273pt" height="360pt"
 viewBox="0.00 0.00 1273.00 360.00" xmlns="http://www.w3.org/2000/svg" xmlns:xlink="http://www.w3.org/1999/xlink">
<g id="graph0" class="graph" transform="scale(1 1) rotate(0) translate(4 356)">
<title>dependencies</title>
<polygon fill="#ffffff" stroke="transparent" points="-4,4 -4,-356 1269,-356 1269,4 -4,4"/>
<text text-anchor="start" x="611.5091" y="-42.4" font-family="sans-serif" font-weight="bold" font-size="14.00" fill="#000000">Legend</text>
<polygon fill="#ffffb3" stroke="transparent" points="398.5,-10 398.5,-30 418.5,-30 418.5,-10 398.5,-10"/>
<text text-anchor="start" x="422.129" y="-15.4" font-family="sans-serif" font-size="14.00" fill="#000000"> &#160;Declarations</text>
<polygon fill="#8dd3c7" stroke="transparent" points="511.5,-10 511.5,-30 531.5,-30 531.5,-10 511.5,-10"/>
<text text-anchor="start" x="535.2251" y="-15.4" font-family="sans-serif" font-size="14.00" fill="#000000"> &#160;Module</text>
<polygon fill="#80b1d3" stroke="transparent" points="597.5,-10 597.5,-30 617.5,-30 617.5,-10 597.5,-10"/>
<text text-anchor="start" x="621.2812" y="-15.4" font-family="sans-serif" font-size="14.00" fill="#000000"> &#160;Bootstrap</text>
<polygon fill="#fdb462" stroke="transparent" points="694.5,-10 694.5,-30 714.5,-30 714.5,-10 694.5,-10"/>
<text text-anchor="start" x="718.1732" y="-15.4" font-family="sans-serif" font-size="14.00" fill="#000000"> &#160;Providers</text>
<polygon fill="#fb8072" stroke="transparent" points="790.5,-10 790.5,-30 810.5,-30 810.5,-10 790.5,-10"/>
<text text-anchor="start" x="814.2258" y="-15.4" font-family="sans-serif" font-size="14.00" fill="#000000"> &#160;Exports</text>
<g id="clust1" class="cluster">
<title>cluster_AppModule</title>
<polygon fill="none" stroke="#000000" stroke-dasharray="1,5" points="8,-146 8,-344 1257,-344 1257,-146 8,-146"/>
</g>
<g id="clust2" class="cluster">
<title>cluster_AppModule_declarations</title>
<polygon fill="none" stroke="#000000" points="845,-154 845,-206 1249,-206 1249,-154 845,-154"/>
</g>
<g id="clust4" class="cluster">
<title>cluster_AppModule_imports</title>
<polygon fill="none" stroke="#000000" points="144,-154 144,-206 837,-206 837,-154 144,-154"/>
</g>
<g id="clust6" class="cluster">
<title>cluster_AppModule_bootstrap</title>
<polygon fill="none" stroke="#000000" points="714,-284 714,-336 838,-336 838,-284 714,-284"/>
</g>
<g id="clust7" class="cluster">
<title>cluster_AppModule_providers</title>
<polygon fill="none" stroke="#000000" points="16,-154 16,-206 136,-206 136,-154 16,-154"/>
</g>
<g id="clust8" class="cluster">
<title>cluster_NguiUtilsModule</title>
<polygon fill="none" stroke="#000000" stroke-dasharray="1,5" points="83,-70 83,-138 1190,-138 1190,-70 83,-70"/>
</g>
<g id="clust9" class="cluster">
<title>cluster_NguiUtilsModule_declarations</title>
<polygon fill="none" stroke="#000000" points="780,-78 780,-130 1182,-130 1182,-78 780,-78"/>
</g>
<g id="clust14" class="cluster">
<title>cluster_NguiUtilsModule_exports</title>
<polygon fill="none" stroke="#000000" points="362,-78 362,-130 772,-130 772,-78 362,-78"/>
</g>
<g id="clust16" class="cluster">
<title>cluster_NguiUtilsModule_providers</title>
<polygon fill="none" stroke="#000000" points="91,-78 91,-130 354,-130 354,-78 91,-78"/>
</g>
<!-- AppComponent -->
<g id="node1" class="node">
<title>AppComponent</title>
<polygon fill="#ffffb3" stroke="#000000" points="1240.9399,-198 1135.0601,-198 1135.0601,-162 1240.9399,-162 1240.9399,-198"/>
<text text-anchor="middle" x="1188" y="-175.8" font-family="Times,serif" font-size="14.00" fill="#000000">AppComponent</text>
</g>
<!-- AppModule -->
<g id="node2" class="node">
<title>AppModule</title>
<polygon fill="#8dd3c7" stroke="#000000" points="817.6571,-263 814.6571,-267 793.6571,-267 790.6571,-263 734.3429,-263 734.3429,-227 817.6571,-227 817.6571,-263"/>
<text text-anchor="middle" x="776" y="-240.8" font-family="Times,serif" font-size="14.00" fill="#000000">AppModule</text>
</g>
<!-- AppComponent&#45;&gt;AppModule -->
<g id="edge1" class="edge">
<title>AppComponent&#45;&gt;AppModule</title>
<path fill="none" stroke="#000000" d="M1205.5732,-198.0109C1205.5732,-220.4852 1205.5732,-256 1205.5732,-256 1205.5732,-256 827.9714,-256 827.9714,-256"/>
<polygon fill="#000000" stroke="#000000" points="827.9715,-252.5001 817.9714,-256 827.9714,-259.5001 827.9715,-252.5001"/>
</g>
<!-- AppComponent&#45;&gt;AppModule -->
<g id="edge13" class="edge">
<title>AppComponent&#45;&gt;AppModule</title>
<path fill="none" stroke="#000000" d="M1170.4268,-198.1289C1170.4268,-218.5724 1170.4268,-249 1170.4268,-249 1170.4268,-249 827.8372,-249 827.8372,-249"/>
<polygon fill="#000000" stroke="#000000" points="827.8372,-245.5001 817.8372,-249 827.8371,-252.5001 827.8372,-245.5001"/>
</g>
<!-- AppComponent  -->
<g id="node5" class="node">
<title>AppComponent </title>
<polygon fill="#80b1d3" stroke="#000000" points="830.439,-328 721.561,-328 721.561,-292 830.439,-292 830.439,-328"/>
<text text-anchor="middle" x="776" y="-305.8" font-family="Times,serif" font-size="14.00" fill="#000000">AppComponent </text>
</g>
<!-- AppModule&#45;&gt;AppComponent  -->
<g id="edge4" class="edge">
<title>AppModule&#45;&gt;AppComponent </title>
<path fill="none" stroke="#000000" stroke-dasharray="1,5" d="M762.0573,-263.1061C762.0573,-263.1061 762.0573,-281.991 762.0573,-281.991"/>
<polygon fill="#000000" stroke="#000000" points="758.5574,-281.9909 762.0573,-291.991 765.5574,-281.991 758.5574,-281.9909"/>
</g>
<!-- AppModule&#45;&gt;AppComponent  -->
<g id="edge20" class="edge">
<title>AppModule&#45;&gt;AppComponent </title>
<path fill="none" stroke="#000000" stroke-dasharray="1,5" d="M789.9427,-263.1061C789.9427,-263.1061 789.9427,-281.991 789.9427,-281.991"/>
<polygon fill="#000000" stroke="#000000" points="786.4428,-281.9909 789.9427,-291.991 793.4428,-281.991 786.4428,-281.9909"/>
</g>
<!-- BrowserModule -->
<g id="node3" class="node">
<title>BrowserModule</title>
<polygon fill="#8dd3c7" stroke="#000000" points="829.4734,-198 826.4734,-202 805.4734,-202 802.4734,-198 722.5266,-198 722.5266,-162 829.4734,-162 829.4734,-198"/>
<text text-anchor="middle" x="776" y="-175.8" font-family="Times,serif" font-size="14.00" fill="#000000">BrowserModule</text>
</g>
<!-- BrowserModule&#45;&gt;AppModule -->
<g id="edge2" class="edge">
<title>BrowserModule&#45;&gt;AppModule</title>
<path fill="none" stroke="#000000" d="M762.0573,-198.1061C762.0573,-198.1061 762.0573,-216.991 762.0573,-216.991"/>
<polygon fill="#000000" stroke="#000000" points="758.5574,-216.9909 762.0573,-226.991 765.5574,-216.991 758.5574,-216.9909"/>
</g>
<!-- BrowserModule&#45;&gt;AppModule -->
<g id="edge16" class="edge">
<title>BrowserModule&#45;&gt;AppModule</title>
<path fill="none" stroke="#000000" d="M789.9427,-198.1061C789.9427,-198.1061 789.9427,-216.991 789.9427,-216.991"/>
<polygon fill="#000000" stroke="#000000" points="786.4428,-216.9909 789.9427,-226.991 793.4428,-216.991 786.4428,-216.9909"/>
</g>
<!-- NguiUtilsModule -->
<g id="node4" class="node">
<title>NguiUtilsModule</title>
<polygon fill="#8dd3c7" stroke="#000000" points="704.2702,-198 701.2702,-202 680.2702,-202 677.2702,-198 589.7298,-198 589.7298,-162 704.2702,-162 704.2702,-198"/>
<text text-anchor="middle" x="647" y="-175.8" font-family="Times,serif" font-size="14.00" fill="#000000">NguiUtilsModule</text>
</g>
<!-- NguiUtilsModule&#45;&gt;AppModule -->
<g id="edge3" class="edge">
<title>NguiUtilsModule&#45;&gt;AppModule</title>
<path fill="none" stroke="#000000" d="M647,-198.2396C647,-213.5706 647,-233 647,-233 647,-233 724.1174,-233 724.1174,-233"/>
<polygon fill="#000000" stroke="#000000" points="724.1174,-236.5001 734.1174,-233 724.1174,-229.5001 724.1174,-236.5001"/>
</g>
<!-- HtmlCodePipe  -->
<g id="node9" class="node">
<title>HtmlCodePipe </title>
<polygon fill="#fb8072" stroke="#000000" points="764.2178,-122 661.7822,-122 661.7822,-86 764.2178,-86 764.2178,-122"/>
<text text-anchor="middle" x="713" y="-99.8" font-family="Times,serif" font-size="14.00" fill="#000000">HtmlCodePipe </text>
</g>
<!-- NguiUtilsModule&#45;&gt;HtmlCodePipe  -->
<g id="edge8" class="edge">
<title>NguiUtilsModule&#45;&gt;HtmlCodePipe </title>
<path fill="none" stroke="#000000" stroke-dasharray="5,2" d="M670.19,-161.9891C670.19,-161.9891 670.19,-132.145 670.19,-132.145"/>
<polygon fill="#000000" stroke="#000000" points="673.6901,-132.145 670.19,-122.145 666.6901,-132.1451 673.6901,-132.145"/>
</g>
<!-- JavascriptCodePipe  -->
<g id="node10" class="node">
<title>JavascriptCodePipe </title>
<polygon fill="#fb8072" stroke="#000000" points="643.9138,-122 514.0862,-122 514.0862,-86 643.9138,-86 643.9138,-122"/>
<text text-anchor="middle" x="579" y="-99.8" font-family="Times,serif" font-size="14.00" fill="#000000">JavascriptCodePipe </text>
</g>
<!-- NguiUtilsModule&#45;&gt;JavascriptCodePipe  -->
<g id="edge9" class="edge">
<title>NguiUtilsModule&#45;&gt;JavascriptCodePipe </title>
<path fill="none" stroke="#000000" stroke-dasharray="5,2" d="M633.0885,-161.9891C633.0885,-161.9891 633.0885,-132.145 633.0885,-132.145"/>
<polygon fill="#000000" stroke="#000000" points="636.5886,-132.145 633.0885,-122.145 629.5886,-132.1451 636.5886,-132.145"/>
</g>
<!-- NguiUtilsDirective  -->
<g id="node11" class="node">
<title>NguiUtilsDirective </title>
<polygon fill="#fb8072" stroke="#000000" points="496.3032,-122 369.6968,-122 369.6968,-86 496.3032,-86 496.3032,-122"/>
<text text-anchor="middle" x="433" y="-99.8" font-family="Times,serif" font-size="14.00" fill="#000000">NguiUtilsDirective </text>
</g>
<!-- NguiUtilsModule&#45;&gt;NguiUtilsDirective  -->
<g id="edge10" class="edge">
<title>NguiUtilsModule&#45;&gt;NguiUtilsDirective </title>
<path fill="none" stroke="#000000" stroke-dasharray="5,2" d="M622.2201,-161.8129C622.2201,-146.8176 622.2201,-128 622.2201,-128 622.2201,-128 449.2053,-128 449.2053,-128 449.2053,-128 449.2053,-127.419 449.2053,-127.419"/>
<polygon fill="#000000" stroke="#000000" points="452.7055,-132.1902 449.2053,-122.1903 445.7055,-132.1903 452.7055,-132.1902"/>
</g>
<!-- HtmlCodePipe -->
<g id="node6" class="node">
<title>HtmlCodePipe</title>
<polygon fill="#ffffb3" stroke="#000000" points="1173.7176,-122 1074.2824,-122 1074.2824,-86 1173.7176,-86 1173.7176,-122"/>
<text text-anchor="middle" x="1124" y="-99.8" font-family="Times,serif" font-size="14.00" fill="#000000">HtmlCodePipe</text>
</g>
<!-- HtmlCodePipe&#45;&gt;NguiUtilsModule -->
<g id="edge5" class="edge">
<title>HtmlCodePipe&#45;&gt;NguiUtilsModule</title>
<path fill="none" stroke="#000000" d="M1095.6035,-122.2396C1095.6035,-137.5706 1095.6035,-157 1095.6035,-157 1095.6035,-157 695.8363,-157 695.8363,-157 695.8363,-157 695.8363,-157.4878 695.8363,-157.4878"/>
<polygon fill="#000000" stroke="#000000" points="692.3365,-151.8776 695.8363,-161.8777 699.3365,-151.8778 692.3365,-151.8776"/>
</g>
<!-- JavascriptCodePipe -->
<g id="node7" class="node">
<title>JavascriptCodePipe</title>
<polygon fill="#ffffb3" stroke="#000000" points="1056.4145,-122 929.5855,-122 929.5855,-86 1056.4145,-86 1056.4145,-122"/>
<text text-anchor="middle" x="993" y="-99.8" font-family="Times,serif" font-size="14.00" fill="#000000">JavascriptCodePipe</text>
</g>
<!-- JavascriptCodePipe&#45;&gt;NguiUtilsModule -->
<g id="edge6" class="edge">
<title>JavascriptCodePipe&#45;&gt;NguiUtilsModule</title>
<path fill="none" stroke="#000000" d="M944.6445,-122.037C944.6445,-135.2913 944.6445,-151 944.6445,-151 944.6445,-151 687.2875,-151 687.2875,-151 687.2875,-151 687.2875,-152.0799 687.2875,-152.0799"/>
<polygon fill="#000000" stroke="#000000" points="683.7876,-151.7985 687.2875,-161.7985 690.7876,-151.7986 683.7876,-151.7985"/>
</g>
<!-- NguiUtilsDirective -->
<g id="node8" class="node">
<title>NguiUtilsDirective</title>
<polygon fill="#ffffb3" stroke="#000000" points="911.8034,-122 788.1966,-122 788.1966,-86 911.8034,-86 911.8034,-122"/>
<text text-anchor="middle" x="850" y="-99.8" font-family="Times,serif" font-size="14.00" fill="#000000">NguiUtilsDirective</text>
</g>
<!-- NguiUtilsDirective&#45;&gt;NguiUtilsModule -->
<g id="edge7" class="edge">
<title>NguiUtilsDirective&#45;&gt;NguiUtilsModule</title>
<path fill="none" stroke="#000000" d="M808.9176,-122.1025C808.9176,-133.0859 808.9176,-145 808.9176,-145 808.9176,-145 678.7388,-145 678.7388,-145 678.7388,-145 678.7388,-151.68 678.7388,-151.68"/>
<polygon fill="#000000" stroke="#000000" points="675.2389,-151.6799 678.7388,-161.68 682.2389,-151.68 675.2389,-151.6799"/>
</g>
<!-- MemoryStorage -->
<g id="node12" class="node">
<title>MemoryStorage</title>
<ellipse fill="#fdb462" stroke="#000000" cx="272" cy="-104" rx="73.5772" ry="18"/>
<text text-anchor="middle" x="272" y="-99.8" font-family="Times,serif" font-size="14.00" fill="#000000">MemoryStorage</text>
</g>
<!-- MemoryStorage&#45;&gt;NguiUtilsModule -->
<g id="edge11" class="edge">
<title>MemoryStorage&#45;&gt;NguiUtilsModule</title>
<path fill="none" stroke="#000000" d="M317.0621,-118.2971C317.0621,-126.0239 317.0621,-134 317.0621,-134 317.0621,-134 611.3518,-134 611.3518,-134 611.3518,-134 611.3518,-151.8196 611.3518,-151.8196"/>
<polygon fill="#000000" stroke="#000000" points="607.8519,-151.8195 611.3518,-161.8196 614.8519,-151.8196 607.8519,-151.8195"/>
</g>
<!-- Storage -->
<g id="node13" class="node">
<title>Storage</title>
<ellipse fill="#fdb462" stroke="#000000" cx="140" cy="-104" rx="40.5673" ry="18"/>
<text text-anchor="middle" x="140" y="-99.8" font-family="Times,serif" font-size="14.00" fill="#000000">Storage</text>
</g>
<!-- Storage&#45;&gt;NguiUtilsModule -->
<g id="edge12" class="edge">
<title>Storage&#45;&gt;NguiUtilsModule</title>
<path fill="none" stroke="#000000" d="M166.1017,-117.8156C166.1017,-127.9678 166.1017,-140 166.1017,-140 166.1017,-140 600.4834,-140 600.4834,-140 600.4834,-140 600.4834,-151.8726 600.4834,-151.8726"/>
<polygon fill="#000000" stroke="#000000" points="596.9835,-151.8725 600.4834,-161.8726 603.9835,-151.8726 596.9835,-151.8725"/>
</g>
<!-- SearchBarComponent -->
<g id="node14" class="node">
<title>SearchBarComponent</title>
<polygon fill="#ffffb3" stroke="#000000" points="1116.6317,-198 977.3683,-198 977.3683,-162 1116.6317,-162 1116.6317,-198"/>
<text text-anchor="middle" x="1047" y="-175.8" font-family="Times,serif" font-size="14.00" fill="#000000">SearchBarComponent</text>
</g>
<!-- SearchBarComponent&#45;&gt;AppModule -->
<g id="edge14" class="edge">
<title>SearchBarComponent&#45;&gt;AppModule</title>
<path fill="none" stroke="#000000" d="M1047,-198.2667C1047,-216.5552 1047,-242 1047,-242 1047,-242 827.7498,-242 827.7498,-242"/>
<polygon fill="#000000" stroke="#000000" points="827.7499,-238.5001 817.7498,-242 827.7498,-245.5001 827.7499,-238.5001"/>
</g>
<!-- MapComponent -->
<g id="node15" class="node">
<title>MapComponent</title>
<polygon fill="#ffffb3" stroke="#000000" points="959.4916,-198 852.5084,-198 852.5084,-162 959.4916,-162 959.4916,-198"/>
<text text-anchor="middle" x="906" y="-175.8" font-family="Times,serif" font-size="14.00" fill="#000000">MapComponent</text>
</g>
<!-- MapComponent&#45;&gt;AppModule -->
<g id="edge15" class="edge">
<title>MapComponent&#45;&gt;AppModule</title>
<path fill="none" stroke="#000000" d="M906,-198.0091C906,-214.0494 906,-235 906,-235 906,-235 827.8484,-235 827.8484,-235"/>
<polygon fill="#000000" stroke="#000000" points="827.8484,-231.5001 817.8484,-235 827.8484,-238.5001 827.8484,-231.5001"/>
</g>
<!-- NguiAutoCompleteModule -->
<g id="node16" class="node">
<title>NguiAutoCompleteModule</title>
<polygon fill="#8dd3c7" stroke="#000000" points="571.9818,-198 568.9818,-202 547.9818,-202 544.9818,-198 402.0182,-198 402.0182,-162 571.9818,-162 571.9818,-198"/>
<text text-anchor="middle" x="487" y="-175.8" font-family="Times,serif" font-size="14.00" fill="#000000">NguiAutoCompleteModule</text>
</g>
<!-- NguiAutoCompleteModule&#45;&gt;AppModule -->
<g id="edge17" class="edge">
<title>NguiAutoCompleteModule&#45;&gt;AppModule</title>
<path fill="none" stroke="#000000" d="M487,-198.0225C487,-215.3734 487,-239 487,-239 487,-239 724.2856,-239 724.2856,-239"/>
<polygon fill="#000000" stroke="#000000" points="724.2856,-242.5001 734.2856,-239 724.2855,-235.5001 724.2856,-242.5001"/>
</g>
<!-- FormsModule -->
<g id="node17" class="node">
<title>FormsModule</title>
<polygon fill="#8dd3c7" stroke="#000000" points="383.8288,-198 380.8288,-202 359.8288,-202 356.8288,-198 288.1712,-198 288.1712,-162 383.8288,-162 383.8288,-198"/>
<text text-anchor="middle" x="336" y="-175.8" font-family="Times,serif" font-size="14.00" fill="#000000">FormsModule</text>
</g>
<!-- FormsModule&#45;&gt;AppModule -->
<g id="edge18" class="edge">
<title>FormsModule&#45;&gt;AppModule</title>
<path fill="none" stroke="#000000" d="M336,-198.1061C336,-217.3391 336,-245 336,-245 336,-245 724.2092,-245 724.2092,-245"/>
<polygon fill="#000000" stroke="#000000" points="724.2092,-248.5001 734.2092,-245 724.2092,-241.5001 724.2092,-248.5001"/>
</g>
<!-- HttpClientModule -->
<g id="node18" class="node">
<title>HttpClientModule</title>
<polygon fill="#8dd3c7" stroke="#000000" points="270.1611,-198 267.1611,-202 246.1611,-202 243.1611,-198 151.8389,-198 151.8389,-162 270.1611,-162 270.1611,-198"/>
<text text-anchor="middle" x="211" y="-175.8" font-family="Times,serif" font-size="14.00" fill="#000000">HttpClientModule</text>
</g>
<!-- HttpClientModule&#45;&gt;AppModule -->
<g id="edge19" class="edge">
<title>HttpClientModule&#45;&gt;AppModule</title>
<path fill="none" stroke="#000000" d="M211,-198.2843C211,-219.3211 211,-251 211,-251 211,-251 723.9948,-251 723.9948,-251"/>
<polygon fill="#000000" stroke="#000000" points="723.9948,-254.5001 733.9948,-251 723.9947,-247.5001 723.9948,-254.5001"/>
</g>
<!-- HttpClient -->
<g id="node19" class="node">
<title>HttpClient</title>
<ellipse fill="#fdb462" stroke="#000000" cx="76" cy="-180" rx="51.6208" ry="18"/>
<text text-anchor="middle" x="76" y="-175.8" font-family="Times,serif" font-size="14.00" fill="#000000">HttpClient</text>
</g>
<!-- HttpClient&#45;&gt;AppModule -->
<g id="edge21" class="edge">
<title>HttpClient&#45;&gt;AppModule</title>
<path fill="none" stroke="#000000" d="M76,-198.2479C76,-221.0179 76,-257 76,-257 76,-257 724.3081,-257 724.3081,-257"/>
<polygon fill="#000000" stroke="#000000" points="724.3082,-260.5001 734.3081,-257 724.3081,-253.5001 724.3082,-260.5001"/>
</g>
</g>
</svg>
